<svg width="20" height="20" viewBox="0 0 20 20" fill="none" xmlns="http://www.w3.org/2000/svg">
<path d="M9.60006 4.52654C10.1184 4.52654 10.5386 4.10632 10.5386 3.58799C10.5386 2.64457 11.3062 1.87709 12.2495 1.87709H14.8998C15.4181 1.87709 15.8384 1.45687 15.8384 0.938544C15.8384 0.420217 15.4181 0 14.8998 0H12.2495C10.2711 0 8.66151 1.60954 8.66151 3.58799C8.66151 4.10619 9.08173 4.52654 9.60006 4.52654Z" fill="white"/>
<path d="M14.6986 7.46167H5.10017C4.58184 7.46167 4.16162 7.88189 4.16162 8.40021C4.16162 8.91854 4.58184 9.33876 5.10017 9.33876H8.66163V19.0614C8.66163 19.5798 9.08184 20 9.60017 20C10.1185 20 10.5387 19.5798 10.5387 19.0614V9.33876H14.6987C15.217 9.33876 15.6373 8.91854 15.6373 8.40021C15.6373 7.88189 15.2169 7.46167 14.6986 7.46167Z" fill="white"/>
</svg>
