<?xml version="1.0" encoding="iso-8859-1"?>
<!-- Generator: Adobe Illustrator 19.0.0, SVG Export Plug-In . SVG Version: 6.00 Build 0)  -->
<svg version="1.1" id="Capa_1" xmlns="http://www.w3.org/2000/svg" xmlns:xlink="http://www.w3.org/1999/xlink" x="0px" y="0px"
	 viewBox="0 0 464.116 464.116" style="enable-background:new 0 0 464.116 464.116;" xml:space="preserve">
<g>
	<g>
		<rect x="40.059" y="32" width="16" height="16"/>
	</g>
</g>
<g>
	<g>
		<rect x="72.059" y="32" width="16" height="16"/>
	</g>
</g>
<g>
	<g>
		<rect x="104.059" y="32" width="16" height="16"/>
	</g>
</g>
<g>
	<g>
		<path d="M352.059,288c-39.764,0-72,32.235-72,72c0,39.764,32.236,72,72,72c39.765,0,72-32.236,72-72
			C424.011,320.256,391.804,288.048,352.059,288z M352.059,416c-30.928,0-56-25.072-56-56c0-30.928,25.072-56,56-56
			c30.928,0,56,25.072,56,56C408.024,390.913,382.973,415.965,352.059,416z"/>
	</g>
</g>
<g>
	<g>
		<path d="M448.08,320.258c-5.499-13.241-13.677-25.202-24.021-35.13V32c0-17.673-14.327-32-32-32h-352c-17.673,0-32,14.327-32,32
			v336c0,17.673,14.327,32,32,32h216c22.02,53.025,82.856,78.16,135.881,56.14C444.966,434.12,470.1,373.284,448.08,320.258z
			 M24.059,32c0-8.837,7.163-16,16-16h352c8.837,0,16,7.163,16,16v32h-384V32z M250.963,384H40.059c-8.837,0-16-7.163-16-16V80h384
			v192.504c-48.116-31.083-112.32-17.274-143.403,30.842C249.235,327.219,244.285,356.375,250.963,384z M352.059,448
			c-48.601,0-88-39.399-88-88c0-48.601,39.399-88,88-88c48.601,0,88,39.399,88,88C440.002,408.577,400.637,447.943,352.059,448z"/>
	</g>
</g>
<g>
	<g>
		<path d="M382.403,334.344l-38.344,38.344l-18.344-18.344l-11.312,11.312l24,24c3.124,3.123,8.188,3.123,11.312,0l44-44
			L382.403,334.344z"/>
	</g>
</g>
<g>
	<g>
		<path d="M114.403,90.344L100.747,104H56.059c-4.418,0-8,3.582-8,8v48c0,4.418,3.582,8,8,8h48c4.418,0,8-3.582,8-8v-44.688
			l13.656-13.656L114.403,90.344z M96.059,152h-32v-32h20.688l-10.344,10.344l11.312,11.312l10.344-10.344V152z"/>
	</g>
</g>
<g>
	<g>
		<rect x="144.059" y="104" width="16" height="16"/>
	</g>
</g>
<g>
	<g>
		<rect x="176.059" y="104" width="208" height="16"/>
	</g>
</g>
<g>
	<g>
		<rect x="144.059" y="136" width="208" height="16"/>
	</g>
</g>
<g>
	<g>
		<path d="M114.403,186.344L100.747,200H56.059c-4.418,0-8,3.582-8,8v48c0,4.418,3.582,8,8,8h48c4.418,0,8-3.582,8-8v-44.688
			l13.656-13.656L114.403,186.344z M96.059,248h-32v-32h20.688l-10.344,10.344l11.312,11.312l10.344-10.344V248z"/>
	</g>
</g>
<g>
	<g>
		<rect x="144.059" y="200" width="16" height="16"/>
	</g>
</g>
<g>
	<g>
		<rect x="176.059" y="200" width="208" height="16"/>
	</g>
</g>
<g>
	<g>
		<rect x="144.059" y="232" width="168" height="16"/>
	</g>
</g>
<g>
	<g>
		<path d="M114.403,282.344L100.747,296H56.059c-4.418,0-8,3.582-8,8v48c0,4.418,3.582,8,8,8h48c4.418,0,8-3.582,8-8v-44.688
			l13.656-13.656L114.403,282.344z M96.059,344h-32v-32h20.688l-10.344,10.344l11.312,11.312l10.344-10.344V344z"/>
	</g>
</g>
<g>
	<g>
		<rect x="144.059" y="296" width="16" height="16"/>
	</g>
</g>
<g>
	<g>
		<rect x="176.059" y="296" width="64" height="16"/>
	</g>
</g>
<g>
	<g>
		<rect x="144.059" y="328" width="88" height="16"/>
	</g>
</g>
<g>
</g>
<g>
</g>
<g>
</g>
<g>
</g>
<g>
</g>
<g>
</g>
<g>
</g>
<g>
</g>
<g>
</g>
<g>
</g>
<g>
</g>
<g>
</g>
<g>
</g>
<g>
</g>
<g>
</g>
</svg>
