<?xml version="1.0" encoding="iso-8859-1"?>
<!-- Generator: Adobe Illustrator 19.0.0, SVG Export Plug-In . SVG Version: 6.00 Build 0)  -->
<svg version="1.1" id="Capa_1" xmlns="http://www.w3.org/2000/svg" xmlns:xlink="http://www.w3.org/1999/xlink" x="0px" y="0px"
	 viewBox="0 0 480 480" style="enable-background:new 0 0 480 480;" xml:space="preserve">
<g>
	<g>
		<path d="M448,0H32C14.327,0,0,14.327,0,32v416c0,17.673,14.327,32,32,32h416c17.673,0,32-14.327,32-32V32
			C480,14.327,465.673,0,448,0z M464,448c0,8.837-7.163,16-16,16H32c-8.837,0-16-7.163-16-16V80h448V448z M464,64H16V32
			c0-8.837,7.163-16,16-16h416c8.837,0,16,7.163,16,16V64z"/>
	</g>
</g>
<g>
	<g>
		<rect x="32" y="32" width="16" height="16"/>
	</g>
</g>
<g>
	<g>
		<rect x="64" y="32" width="16" height="16"/>
	</g>
</g>
<g>
	<g>
		<rect x="96" y="32" width="16" height="16"/>
	</g>
</g>
<g>
	<g>
		<path d="M375.312,225.976l-22.224-9.36L344.8,196.72l9.12-22.4c1.213-2.98,0.523-6.397-1.752-8.672l-26.064-26.072
			c-2.275-2.275-5.692-2.965-8.672-1.752l-22.4,9.12l-19.832-8.24l-9.36-22.232c-1.249-2.968-4.156-4.897-7.376-4.896H221.6
			c-3.22-0.001-6.127,1.928-7.376,4.896l-9.424,22.232l-19.904,8.248l-22.4-9.12c-2.98-1.213-6.397-0.523-8.672,1.752
			l-26.064,26.072c-2.275,2.275-2.965,5.692-1.752,8.672l9.12,22.4l-8.256,19.896l-22.224,9.36
			c-2.968,1.249-4.897,4.156-4.896,7.376v36.864c-0.002,3.218,1.923,6.124,4.888,7.376l22.232,9.36l8.328,19.896l-9.12,22.4
			c-1.213,2.98-0.523,6.397,1.752,8.672L153.864,364c2.275,2.275,5.692,2.965,8.672,1.752l22.4-9.112l19.904,8.24l9.36,22.24
			c1.258,2.969,4.175,4.893,7.4,4.88h36.8c3.218,0.002,6.124-1.923,7.376-4.888l9.36-22.24l19.904-8.248l22.4,9.12
			c2.98,1.213,6.397,0.523,8.672-1.752l26.064-26.072c2.283-2.27,2.983-5.687,1.776-8.672l-9.12-22.4l8.256-19.904l22.232-9.36
			c2.965-1.252,4.89-4.158,4.888-7.376v-36.856C380.209,230.132,378.28,227.225,375.312,225.976z M364.208,264.904l-20.368,8.584
			c-1.938,0.819-3.476,2.368-4.28,4.312h-0.008L328.8,303.776c-0.804,1.944-0.804,4.128,0,6.072l8.336,20.552l-18.56,18.552
			l-20.512-8.352c-1.949-0.792-4.131-0.792-6.08,0l-25.976,10.768c-1.944,0.804-3.493,2.342-4.312,4.28L253.12,376h-26.24
			l-8.576-20.368c-0.817-1.941-2.366-3.482-4.312-4.288L188,340.584c-1.945-0.798-4.127-0.798-6.072,0l-20.512,8.344L142.864,330.4
			l8.336-20.552c0.804-1.944,0.804-4.128,0-6.072L140.44,277.8c-0.804-1.944-2.342-3.493-4.28-4.312l-20.368-8.584v-26.24
			l20.36-8.568c1.941-0.817,3.482-2.366,4.288-4.312l10.76-25.976c0.8-1.948,0.8-4.132,0-6.08l-8.352-20.52l18.56-18.552
			l20.512,8.352c1.945,0.812,4.135,0.812,6.08,0l25.976-10.768c1.944-0.804,3.493-2.342,4.312-4.28l8.576-20.368h26.24l8.576,20.368
			c0.819,1.938,2.368,3.476,4.312,4.28L292,162.992c1.946,0.808,4.134,0.808,6.08,0l20.512-8.352l18.56,18.552l-8.352,20.536
			c-0.8,1.948-0.8,4.132,0,6.08l10.76,25.976c0.806,1.946,2.347,3.495,4.288,4.312l20.36,8.568V264.904z"/>
	</g>
</g>
<g>
	<g>
		<path d="M240,171.792c-44.183,0-80,35.817-80,80s35.817,80,80,80s80-35.817,80-80C319.952,207.629,284.163,171.841,240,171.792z
			 M240,315.792c-35.346,0-64-28.654-64-64c0-35.346,28.654-64,64-64c35.346,0,64,28.654,64,64
			C303.96,287.122,275.33,315.752,240,315.792z"/>
	</g>
</g>
<g>
	<g>
		<rect x="232" y="243.792" width="16" height="16"/>
	</g>
</g>
<g>
	<g>
		<rect x="200" y="243.792" width="16" height="16"/>
	</g>
</g>
<g>
	<g>
		<rect x="264" y="243.792" width="16" height="16"/>
	</g>
</g>
<g>
	<g>
		<rect x="40" y="392" width="16" height="16"/>
	</g>
</g>
<g>
	<g>
		<rect x="72" y="392" width="72" height="16"/>
	</g>
</g>
<g>
	<g>
		<rect x="40" y="424" width="72" height="16"/>
	</g>
</g>
<g>
	<g>
		<rect x="336" y="392" width="16" height="16"/>
	</g>
</g>
<g>
	<g>
		<rect x="368" y="392" width="72" height="16"/>
	</g>
</g>
<g>
	<g>
		<rect x="336" y="424" width="72" height="16"/>
	</g>
</g>
<g>
</g>
<g>
</g>
<g>
</g>
<g>
</g>
<g>
</g>
<g>
</g>
<g>
</g>
<g>
</g>
<g>
</g>
<g>
</g>
<g>
</g>
<g>
</g>
<g>
</g>
<g>
</g>
<g>
</g>
</svg>
