<svg width="20" height="20" viewBox="0 0 20 20" fill="none" xmlns="http://www.w3.org/2000/svg">
<g clip-path="url(#clip0)">
<path d="M19.8654 4.27487C19.6279 3.93261 19.1575 3.84747 18.8149 4.08507L16.4713 5.71124C16.2585 5.85887 16.1363 6.10533 16.1475 6.36406C16.1542 6.51924 16.1575 6.66476 16.1575 6.80887C16.1575 11.5994 12.5123 16.5544 6.4121 16.5544C5.16855 16.5544 3.94683 16.3177 2.80502 15.8611L6.42176 14.8495C6.8232 14.7372 7.05758 14.3208 6.94527 13.9194C6.83296 13.518 6.41693 13.2836 6.01509 13.3959L0.551487 14.9241C0.265078 15.0042 0.0524347 15.245 0.00835629 15.5392C-0.0356215 15.8333 0.0971169 16.1259 0.347498 16.2864C2.16135 17.4493 4.2585 18.064 6.4121 18.064C10.6445 18.064 13.2954 16.0644 14.774 14.387C16.6126 12.3011 17.6671 9.53901 17.6671 6.80897C17.6671 6.77908 17.667 6.7492 17.6668 6.71921L19.6756 5.3254C20.0179 5.0877 20.103 4.61743 19.8654 4.27487Z" fill="white"/>
<path d="M1.66601 4.0395L9.27254 7.89535C9.38042 7.95009 9.49736 7.97696 9.6137 7.97696C9.77934 7.97696 9.94398 7.92252 10.0795 7.81615C10.3103 7.6352 10.4154 7.33702 10.3489 7.05132C10.2985 6.83455 10.2731 6.60892 10.2731 6.38088C10.2731 4.76236 11.5901 3.44555 13.2089 3.44555C14.0181 3.44555 14.7993 3.78338 15.352 4.3725C15.5585 4.59269 15.8764 4.66847 16.1602 4.56542L18.5079 3.71243C18.8996 3.57003 19.1019 3.1371 18.9595 2.74532C18.8172 2.35345 18.3839 2.15147 17.9924 2.29367L16.082 2.98776C15.2841 2.3143 14.2623 1.93591 13.2089 1.93591C10.9013 1.93591 8.99881 3.70317 8.78376 5.95509L2.34852 2.69309C1.97667 2.5045 1.5225 2.65324 1.33401 3.02499C1.14552 3.39684 1.29416 3.85101 1.66601 4.0395Z" fill="white"/>
<path d="M1.27696 8.55934L2.94832 9.02075C3.01554 9.03937 3.08307 9.04813 3.14959 9.04813C3.48058 9.04813 3.78429 8.82864 3.87668 8.49403C3.98768 8.09229 3.75179 7.67657 3.35005 7.56557L1.6787 7.10416C1.27716 6.99326 0.861236 7.22894 0.750235 7.63078C0.639335 8.03272 0.875124 8.44834 1.27696 8.55934Z" fill="white"/>
<path d="M2.74231 10.8058C2.32578 10.8216 2.00093 11.172 2.01673 11.5886C2.03212 11.9954 2.36674 12.3148 2.77049 12.3148C2.78015 12.3148 2.78981 12.3146 2.79947 12.3142L4.46619 12.251C4.88272 12.2353 5.20757 11.8848 5.19187 11.4682C5.17607 11.0517 4.82476 10.7272 4.40913 10.7426L2.74231 10.8058Z" fill="white"/>
</g>
<defs>
<clipPath id="clip0">
<rect width="20" height="20" fill="white"/>
</clipPath>
</defs>
</svg>
